<?xml version="1.0" encoding="utf-8"?>
<!-- Generator: Adobe Illustrator 28.2.0, SVG Export Plug-In . SVG Version: 6.00 Build 0)  -->
<svg version="1.1" id="Layer_1" xmlns="http://www.w3.org/2000/svg" xmlns:xlink="http://www.w3.org/1999/xlink" x="0px" y="0px"
	 viewBox="0 0 800 800" style="enable-background:new 0 0 800 800;" xml:space="preserve">
<style type="text/css">
	.st0{fill:#FFFFFF;}
</style>
<path class="st0" d="M500,350c51.6,0,97.1-33.9,111.8-83.3H700c18.4,0,33.3-14.9,33.3-33.3S718.4,200,700,200h-88.2
	c-18.5-61.8-83.5-96.9-145.3-78.4c-37.6,11.3-67.1,40.7-78.4,78.4H100c-18.4,0-33.3,14.9-33.3,33.3s14.9,33.3,33.3,33.3h288.2
	C402.9,316.1,448.4,350,500,350z M100,533.3c-18.4,0-33.3,14.9-33.3,33.3S81.6,600,100,600h71.5c18.5,61.8,83.5,96.9,145.3,78.4
	c37.6-11.3,67.1-40.7,78.4-78.4H700c18.4,0,33.3-14.9,33.3-33.3s-14.9-33.3-33.3-33.3H395.2c-18.5-61.8-83.5-96.9-145.3-78.4
	c-37.6,11.3-67.1,40.7-78.4,78.4H100z"/>
</svg>
