<?xml version="1.0" encoding="utf-8"?>
<!-- Generator: Adobe Illustrator 28.2.0, SVG Export Plug-In . SVG Version: 6.00 Build 0)  -->
<svg version="1.1" id="Layer_1" xmlns="http://www.w3.org/2000/svg" xmlns:xlink="http://www.w3.org/1999/xlink" x="0px" y="0px"
	 viewBox="0 0 800 800" style="enable-background:new 0 0 800 800;" xml:space="preserve">
<style type="text/css">
	.st0{fill:none;stroke:#000000;stroke-width:39;stroke-linecap:round;stroke-linejoin:round;stroke-miterlimit:10;}
</style>
<g>
	<g>
		<path class="st0" d="M745.7,378.9c0-48,0.1-96,0-144.1c-0.1-48.8-41.3-89.7-89.6-89.7c-170.5,0-341,0.2-511.4-0.1
			c-44.2-0.1-83.8,35.6-89,76.2c-0.8,5.9-1.4,11.7-1.4,17.6c0,79-0.1,157.9,0,236.9c0.1,50.4,40.9,91.2,91.2,91.2
			c94.7,0.1,189.4,0,284.1,0"/>
		<path class="st0" d="M660.1,270.4c-40.3,0.1-80.6,0.3-120.9,0.4"/>
		<path class="st0" d="M624.1,468.5c0,18.7-0.1,37.4,0.1,56c0.1,5.8-1,10.3-5.6,14.5c-12.1,11.4-23.6,23.3-35.3,35.1"/>
		<path class="st0" d="M352.7,426.1c-32.5,0-65.1,0-97.6,0"/>
		<path class="st0" d="M621.7,221.2c-28.3,0-56.6,0-84.8,0"/>
		<path class="st0" d="M211.9,426.1c-28.3,0-56.6,0-84.8,0"/>
		<path class="st0" d="M155,221.2c-15.1,2.8-23.7,14.2-22.6,28.8c0.9,11.7,0.8,23.5,0,35.2c-0.8,12.9,10.9,25.3,24.2,25.5
			c15.5,0.3,31,0.6,46.4-0.1c9.7-0.4,21.4-7.9,23.1-22.2c1.7-14.6,1.9-29.4,0-44c-1.9-14.6-12.5-23.2-27.1-23.2
			c-14.4,0-28.8,0-43.2,0"/>
		<path class="st0" d="M616.1,411.7c-21.8,2.9-42.4,8.8-60.9,21.5c-57.5,39.5-70.4,120.5-26.4,175.4c26.4,32.9,61,48.4,102.5,46.1
			c54.2-3,97.6-40,110.4-91c11.3-45.2-0.4-84.8-32.9-117.5c-25-25.1-56.5-35.7-91.9-34.6"/>
	</g>
</g>
</svg>
