<?xml version="1.0" encoding="utf-8"?>
<!-- Generator: Adobe Illustrator 28.2.0, SVG Export Plug-In . SVG Version: 6.00 Build 0)  -->
<svg version="1.1" id="Capa_1" xmlns="http://www.w3.org/2000/svg" xmlns:xlink="http://www.w3.org/1999/xlink" x="0px" y="0px"
	 viewBox="0 0 800 800" style="enable-background:new 0 0 800 800;" xml:space="preserve">
<style type="text/css">
	.st0{stroke:#000000;stroke-width:20;stroke-miterlimit:10;}
</style>
<g>
	<g>
		<path class="st0" d="M15.1,293.1C15.1,446.4,139.8,571,293,571c70.6,0,135.1-26.5,184.2-70l279,279c3.3,3.3,7.5,4.9,11.9,4.9
			s8.6-1.6,11.9-4.9c6.6-6.6,6.6-17.1,0-23.7l-279.1-279c43.5-49.1,70-113.5,70-184.2c0-153.3-124.7-277.9-277.9-277.9
			S15.1,139.8,15.1,293.1z M537.4,293.1c0,134.7-109.7,244.4-244.4,244.4S48.6,427.8,48.6,293.1S158.3,48.7,293,48.7
			S537.4,158.2,537.4,293.1z"/>
	</g>
</g>
</svg>
