<?xml version="1.0" encoding="utf-8"?>
<!-- Generator: Adobe Illustrator 28.2.0, SVG Export Plug-In . SVG Version: 6.00 Build 0)  -->
<svg version="1.1" id="Layer_1" xmlns="http://www.w3.org/2000/svg" xmlns:xlink="http://www.w3.org/1999/xlink" x="0px" y="0px"
	 viewBox="0 0 800 800" style="enable-background:new 0 0 800 800;" xml:space="preserve">
<style type="text/css">
	.st0{fill-rule:evenodd;clip-rule:evenodd;fill:#FFFFFF;}
</style>
<path class="st0" d="M143.6,310.7C99.7,273.4,106,203.8,155.9,175l14.5-8.4c25.9-15,57.8-14.9,83.7,0.2L436.1,273
	c0.2,0.1,4.4,1.4,8.6,1.7c2.3,0.2,4.1,0.1,5.3-0.1l107.6-62.1c60.1-34.7,103.3-39.6,146.2-24.9c41.5,14.2,68.4,44.6,84.2,68.4
	c26.5,40,4.8,85.2-28,104.1L269.2,648.5c-37.9,21.9-85.6,16.6-117.7-13L16.7,511.3c-34.7-31.9-9.9-89.7,37.1-86.7l122.8,7.9l65.8-38
	L143.6,310.7z M189.2,232.8c-10,5.8-11.2,19.7-2.5,27.1L303.5,359c26.4,22.4,22.6,64.1-7.4,81.4l-103.7,59.9l-95.9-6.2l100.1,92.2
	c10.7,9.9,26.6,11.6,39.2,4.3l490.7-288.3c2.7-1.5,8-6.1,5.7-9.6c-11.6-17.4-28.1-34.6-50.2-42.1c-20.7-7.1-43.8-7.8-91.3,19.6
	l-109.2,63c-14.2,8.2-30.9,8.7-41.8,7.9c-11.6-0.8-25.8-3.9-37.2-10.5L220.4,224.4c-5.2-3-11.6-3-16.7,0L189.2,232.8z"/>
</svg>
