<?xml version="1.0" encoding="utf-8"?>
<!-- Generator: Adobe Illustrator 28.2.0, SVG Export Plug-In . SVG Version: 6.00 Build 0)  -->
<svg version="1.1" id="Layer_1" xmlns="http://www.w3.org/2000/svg" xmlns:xlink="http://www.w3.org/1999/xlink" x="0px" y="0px"
	 viewBox="0 0 800 800" style="enable-background:new 0 0 800 800;" xml:space="preserve">
<style type="text/css">
	.st0{fill:none;stroke:#000000;stroke-width:50;stroke-miterlimit:125;}
</style>
<g>
	<g>
		<path class="st0" d="M689.5,237.9c-17.4,17.4-31.3,23.2-57.9,23.2c-53.2,0-92.6-39.5-92.6-92.6c0-26.6,5.7-40.5,23.2-57.9
			L492.6,41L41,492.6l69.5,69.5c17.4-17.4,31.3-23.2,57.9-23.2c53.2,0,92.6,39.5,92.6,92.6c0,26.6-5.7,40.5-23.2,57.9l69.5,69.5
			L759,307.4L689.5,237.9z"/>
		<line class="st0" x1="330.5" y1="203.1" x2="376.8" y2="249.5"/>
		<line class="st0" x1="550.5" y1="423.2" x2="596.9" y2="469.5"/>
	</g>
	<line class="st0" x1="400" y1="272.6" x2="446.3" y2="318.9"/>
	<line class="st0" x1="481.1" y1="353.7" x2="527.4" y2="400"/>
</g>
</svg>
