<?xml version="1.0" encoding="utf-8"?>
<!-- Generator: Adobe Illustrator 28.2.0, SVG Export Plug-In . SVG Version: 6.00 Build 0)  -->
<svg version="1.1" id="Layer_1" xmlns="http://www.w3.org/2000/svg" xmlns:xlink="http://www.w3.org/1999/xlink" x="0px" y="0px"
	 viewBox="0 0 800 800" style="enable-background:new 0 0 800 800;" xml:space="preserve">
<style type="text/css">
	.st0{fill:#FFFFFF;}
</style>
<g id="XMLID_468_">
	<path id="XMLID_469_" class="st0" d="M563.5,450.8c-1.3-0.6-51-25.1-59.8-28.3c-3.6-1.3-7.5-2.6-11.6-2.6c-6.7,0-12.3,3.3-16.7,9.9
		c-5,7.4-20,24.9-24.6,30.2c-0.6,0.7-1.4,1.5-1.9,1.5c-0.4,0-8.1-3.2-10.5-4.2c-53.3-23.2-93.7-78.8-99.3-88.2c-0.8-1.3-0.8-2-0.8-2
		c0.2-0.7,2-2.5,2.9-3.4c2.7-2.7,5.6-6.2,8.5-9.6c1.3-1.6,2.7-3.2,4-4.8c4.1-4.8,5.9-8.5,8.1-12.8l1.1-2.2c5.2-10.3,0.8-19-0.7-21.8
		c-1.2-2.3-22.2-53-24.4-58.3c-5.4-12.8-12.5-18.8-22.3-18.8c-0.9,0,0,0-3.8,0.2c-4.7,0.2-30.1,3.5-41.3,10.6
		c-11.9,7.5-32.1,31.5-32.1,73.6c0,37.9,24.1,73.7,34.4,87.3c0.3,0.3,0.7,1,1.4,2c39.5,57.8,88.8,100.6,138.8,120.5
		c48.1,19.2,70.9,21.4,83.8,21.4l0,0c5.4,0,9.8-0.4,13.6-0.8l2.4-0.2c16.6-1.5,53.1-20.4,61.5-43.5c6.5-18.2,8.3-38.1,3.9-45.3
		C575.2,456.4,570,454,563.5,450.8z"/>
	<path id="XMLID_470_" class="st0" d="M406,59.3c-184.6,0-334.7,149-334.7,332.2c0,59.2,15.9,117.2,45.9,168L59.7,729.1
		c-1.1,3.2-0.3,6.7,2.1,9c1.7,1.7,4,2.7,6.3,2.7c0.9,0,1.8-0.1,2.7-0.4l176.8-56.2c48.4,25.9,103.1,39.5,158.4,39.5
		c184.6,0,334.7-149,334.7-332.2S590.6,59.3,406,59.3z M406,654.4c-52.1,0-102.5-15-145.9-43.5c-1.5-1-3.2-1.4-4.9-1.4
		c-0.9,0-1.8,0.1-2.7,0.4L164,638.1l28.6-84.4c0.9-2.7,0.5-5.7-1.2-8.1c-33-45.1-50.5-98.4-50.5-154.2c0-145,118.9-263,265.1-263
		s265.1,118,265.1,263C671.1,536.5,552.2,654.4,406,654.4z"/>
</g>
</svg>
