<?xml version="1.0" encoding="utf-8"?>
<!-- Generator: Adobe Illustrator 28.2.0, SVG Export Plug-In . SVG Version: 6.00 Build 0)  -->
<svg version="1.1" id="Layer_1" xmlns="http://www.w3.org/2000/svg" xmlns:xlink="http://www.w3.org/1999/xlink" x="0px" y="0px"
	 viewBox="0 0 413.6 124.5" style="enable-background:new 0 0 413.6 124.5;" xml:space="preserve">
<style type="text/css">
	.st0{fill:#004080;}
</style>
<g>
	<path class="st0" d="M302.7,89.6c5.9,18.3,33,19.3,44.7,5.4c2.5-2.6,4.1-2.3,6.6,0c8.8,8.2,8.9,9-1,16.3
		c-44.9,33.3-98.8-25.6-61.8-65.8c21.6-24.7,70-13.5,72.1,21.3c0.3,4-2.1,4.7-4.9,5.6C339.8,78.3,321,83.2,302.7,89.6z M298.7,74.5
		c14.5-3.2,26.6-7.7,40.5-11.6C357.9,57.2,303.9,27.9,298.7,74.5z"/>
	<path class="st0" d="M196.3,33.7c7.2,1,19.4-3.3,21.6,4.5c7.5,20.5,14,39.9,21.6,60.6c7.7-19.9,14-39.3,20.9-59.4
		c3-9.9,13.1-4.9,21.3-6.1c-9.2,27.5-20.4,53.4-30.3,80.6c-1.6,4.2-3.8,5.9-8.4,5.8c-13.7-0.2-13.7,0-18.8-13
		C215,82.1,205.2,58.5,196.3,33.7z"/>
	<path class="st0" d="M161.6,119.7c-7.5-5.7-13.7-10.4-19.9-15.1c-8.8-8.7-9.1,1.9-15.2,7.1c0.5-7.4-0.6-15.1,4.8-21.3
		c15.5-18.4,33.1-35.6,47.5-54.7c-19,16.3-37.6,33.2-56.8,49.2c-7.9,5.1-18-0.3-26.6-1c-0.2-0.6-0.4-1.1-0.5-1.7
		c29.7-17.4,59.5-34.8,89.2-52.3c0.4,0.3,0.9,0.7,1.3,1C177.6,60.1,169.8,89.3,161.6,119.7z"/>
	<path class="st0" d="M0.4,56.2c0-12.2,0.1-24.3-0.1-36.5c-0.1-4.6,1.3-6.6,6.2-6.6c16.2,0.2,12.9-1,13.1,12.9
		c0.2,11.9-0.9,10.8,10.7,10.8c5.1,0.9,15.5-3,14.8,5.3c-0.3,3.8,1.1,9.9-4.7,9.4C35,52.6,19,47.9,19.6,56.2
		c2.2,13.3-8.4,55.7,16.6,44.8c4.7-1.8,6-0.2,7.3,3.9c3.2,9.9,3.2,10.2-6.5,13.5C-5.5,131.4,0.1,83.7,0.4,56.2L0.4,56.2z"/>
	<path class="st0" d="M411.6,100.4c0.2,6.1,5.1,13.3-1,17.1c-16.9,8.8-34.1-0.9-34.4-19.8c-0.4-30.8-0.1-61.6-0.2-92.4
		c0-4,1.8-5.2,5.4-5.2c16.2,0.1,13.8-1.6,13.9,13.2c0.3,27.3-0.3,54.6,0.2,81.9C396.4,104.5,404.5,103,411.6,100.4z"/>
	<path class="st0" d="M80.3,46.2C86,38.8,93,34.5,101.6,33.1c6.4-1,7-0.5,7.1,5.8c0,9.1,1,11.6-9.1,13c-28.3,5.4-18.7,39-20.3,59.8
		c0,7.9-0.1,7.9-8.1,7.9c-7.6-0.4-12.7,2.2-11.7-7.9c0-23.6,0-47.3,0-70.9c-0.2-7.4,0.8-7.4,7.7-7.5C80.8,32.6,77.1,35.4,80.3,46.2z
		"/>
</g>
</svg>
