<?xml version="1.0" encoding="utf-8"?>
<!-- Generator: Adobe Illustrator 28.2.0, SVG Export Plug-In . SVG Version: 6.00 Build 0)  -->
<svg version="1.1" id="Layer_1" xmlns="http://www.w3.org/2000/svg" xmlns:xlink="http://www.w3.org/1999/xlink" x="0px" y="0px"
	 viewBox="0 0 91.7 89.8" style="enable-background:new 0 0 91.7 89.8;" xml:space="preserve">
<path d="M67.3,89.8c-7.5-5.7-13.7-10.4-19.9-15.1c-8.8-8.7-9.1,1.9-15.2,7.1c0.5-7.4-0.6-15.1,4.8-21.3C52.5,42,70.1,24.8,84.5,5.8
	C65.6,22.1,47,39,27.8,55c-7.9,5.1-18-0.3-26.6-1c-0.2-0.6-0.4-1.1-0.5-1.7C30.4,34.8,60.1,17.4,89.9,0c0.4,0.3,0.9,0.7,1.3,1
	C83.3,30.2,75.5,59.3,67.3,89.8z"/>
</svg>
